<svg width="19" height="18" viewBox="0 0 19 18" fill="none" xmlns="http://www.w3.org/2000/svg">
<path d="M14.4868 4.23735C14.1726 3.91303 13.7996 3.65576 13.3891 3.48023C12.9785 3.3047 12.5385 3.21436 12.0941 3.21436C11.6497 3.21436 11.2097 3.3047 10.7991 3.48023C10.3886 3.65576 10.0156 3.91303 9.70143 4.23735L9.04944 4.91012L8.39745 4.23735C7.76288 3.58256 6.90221 3.21469 6.00478 3.21469C5.10736 3.21469 4.24669 3.58256 3.61211 4.23735C2.97753 4.89215 2.62103 5.78025 2.62103 6.70627C2.62103 7.63229 2.97753 8.52039 3.61211 9.17519L4.2641 9.84795L9.04944 14.7858L13.8348 9.84795L14.4868 9.17519C14.8011 8.85102 15.0504 8.46613 15.2205 8.0425C15.3906 7.61888 15.4782 7.16482 15.4782 6.70627C15.4782 6.24772 15.3906 5.79366 15.2205 5.37004C15.0504 4.94641 14.8011 4.56152 14.4868 4.23735V4.23735Z" stroke="#F58026" stroke-linecap="round" stroke-linejoin="round"/>
</svg>
