<svg xmlns="http://www.w3.org/2000/svg" viewBox="0 0 446.73 80"><defs><style>.cls-1,.cls-5{font-size:48px;}.cls-1,.cls-4,.cls-5{fill:#fff;}.cls-1{font-family:Montserrat-Regular, Montserrat;}.cls-2{letter-spacing:-0.03em;}.cls-3{letter-spacing:-0.01em;}.cls-5{font-family:Montserrat-Bold, Montserrat;font-weight:700;}</style></defs><title>gf-logo-white</title><g id="Layer_2" data-name="Layer 2"><g id="Layer_6" data-name="Layer 6"><text class="cls-1" transform="translate(77.24 54.11)">GAME<tspan class="cls-2" x="149.47" y="0">F</tspan><tspan class="cls-3" x="178.27" y="0">A</tspan><tspan x="212.21" y="0">CE</tspan></text><path class="cls-4" d="M57.09,30.37c.06.18.23.39,0,.55.1-.49-.25-.79-.51-1.1A24.24,24.24,0,0,0,52,25.55a13.52,13.52,0,0,0-5.25-2.41A10.57,10.57,0,0,1,57.09,30.37Z"/><path class="cls-4" d="M56.54,29.82c.26.31.61.61.51,1.1a14.7,14.7,0,0,0-3.2-3.65,17.72,17.72,0,0,0-6.59-3.9c-.18-.06-.35-.16-.52-.23A13.52,13.52,0,0,1,52,25.55,24.24,24.24,0,0,1,56.54,29.82Z"/><path class="cls-4" d="M57.05,30.92c-.49,0-.8-.36-1.18-.57a21.61,21.61,0,0,0-7.21-2.45,2,2,0,0,1-1.29-1.33c0-.4.32-.25.5-.24a14.48,14.48,0,0,1,4.92,1.27c.15.06.27.2.53.1a9.61,9.61,0,0,0-3.82-2.2,21.76,21.76,0,0,0-3.3-.7,7.13,7.13,0,0,0-1.11-1.56h0a4.17,4.17,0,0,1,1.65-.1c.17.07.34.17.52.23a17.72,17.72,0,0,1,6.59,3.9A14.7,14.7,0,0,1,57.05,30.92Z"/><path class="cls-4" d="M56.68,34.51c0,.13.21.3-.07.38.15-.21,0-.37-.11-.51a9.84,9.84,0,0,0-1.12-1.45,20.4,20.4,0,0,0-4.91-3.64,11.37,11.37,0,0,1,5.12,3.32A5.91,5.91,0,0,1,56.68,34.51Z"/><path class="cls-4" d="M56.5,34.38c.1.14.26.3.11.51a11.37,11.37,0,0,0-3.07-3.37,19.45,19.45,0,0,0-2.48-1.75c-.22-.13-.48-.21-.59-.48a20.4,20.4,0,0,1,4.91,3.64A9.84,9.84,0,0,1,56.5,34.38Z"/><path class="cls-4" d="M56.32,23.75c-.49.06-.69-.24-.93-.41a16.37,16.37,0,0,0-9.31-3,13.84,13.84,0,0,0-6.76,2.13A40,40,0,0,0,34,26.15a16.36,16.36,0,0,1,3.56-3.49c.38,0,.6-.27.88-.43a17.46,17.46,0,0,1,7.69-2.43A14.61,14.61,0,0,1,53.34,21C54.69,21.49,55.44,22.61,56.32,23.75Z"/><path class="cls-4" d="M53.54,31.52a11.37,11.37,0,0,1,3.07,3.37,23.18,23.18,0,0,0-6.54-3.41,1,1,0,0,1-.54-.9l.62,0h0a.14.14,0,0,0,.12,0l2.33.93a4.06,4.06,0,0,0-2-1.21,4.89,4.89,0,0,1-1.57-.59c.21-.25-.85-.93.29-.86l1.13.37c.11.27.37.35.59.48A19.45,19.45,0,0,1,53.54,31.52Z"/><path class="cls-4" d="M53.05,34.33a6.76,6.76,0,0,1,2.64,4.29,22,22,0,0,0-2.36-2.29c-.18-.58-.35-1.16-.53-1.74C52.73,34.35,52.76,34.22,53.05,34.33Z"/><path class="cls-4" d="M53.88,38.51a5,5,0,0,1,1,2.33,3.72,3.72,0,0,1-1-1.07C54.29,39.35,53.8,38.93,53.88,38.51Z"/><path class="cls-4" d="M53.88,38.51c-.08.42.41.84,0,1.26C54,39.35,53.57,38.93,53.88,38.51Z"/><path class="cls-4" d="M53.88,38.51c-.31.42.13.84,0,1.26L52,38.31a5,5,0,0,0,.15-1.55A10.36,10.36,0,0,1,53.88,38.51Z"/><path class="cls-4" d="M53.33,36.33c-.43-.28-.86-.56-1.28-.85.44-.37.49-1,.15-1.72.33.12.71.16.85.57-.43-.33-.43.05-.38.27A3.21,3.21,0,0,0,53.33,36.33Z"/><path class="cls-4" d="M52.73,20.51c.24.12.56.16.61.51A5.82,5.82,0,0,0,50.89,20a17,17,0,0,0-8.63.36,19.05,19.05,0,0,0-4.69,2.34C41.9,19,48.11,18.09,52.73,20.51Z"/><path class="cls-4" d="M52.8,34.59c.18.58.35,1.16.53,1.74a3.21,3.21,0,0,1-.66-1.73c-.05-.22-.05-.6.38-.27C52.76,34.22,52.73,34.35,52.8,34.59Z"/><path class="cls-4" d="M51.63,39.76a6.27,6.27,0,0,1,1.87,3.91l-2-2.49C51.55,40.71,51.85,40.26,51.63,39.76Z"/><path class="cls-4" d="M52.64,31.58l-2.33-.93a4.56,4.56,0,0,1,1.93.65c-.5-.34-1.11-.54-1.62-.93A4.06,4.06,0,0,1,52.64,31.58Z"/><path class="cls-4" d="M50.89,20A5.82,5.82,0,0,1,53.34,21a14.61,14.61,0,0,0-7.2-1.22,17.46,17.46,0,0,0-7.69,2.43c-.28.16-.5.46-.88.43a19.05,19.05,0,0,1,4.69-2.34A17,17,0,0,1,50.89,20Z"/><path class="cls-4" d="M52.2,33.76c.34.76.29,1.35-.15,1.72C52.4,34.94,52.08,34.33,52.2,33.76Z"/><path class="cls-4" d="M51.34,36l.85.72A1.92,1.92,0,0,0,52,38.31l-1-.56a1.21,1.21,0,0,0,.12-1A.74.74,0,0,1,51.34,36Z"/><path class="cls-4" d="M52.19,36.76A5,5,0,0,1,52,38.31,1.92,1.92,0,0,1,52.19,36.76Z"/><path class="cls-4" d="M52.2,33.76c-.12.57.2,1.18-.15,1.72l-1.41-.86A8.27,8.27,0,0,0,50.28,33c-.06-.19-.2-.43.21-.37A7,7,0,0,1,52.2,33.76Z"/><path class="cls-4" d="M50.92,42.6A5.48,5.48,0,0,1,52,46.28a10.11,10.11,0,0,0-1.66-2.52C51,43.59,50.85,43.05,50.92,42.6Z"/><path class="cls-4" d="M51.63,39.76c.22.5-.08,1-.16,1.42A2.56,2.56,0,0,1,51.63,39.76Z"/><path class="cls-4" d="M50.62,30.37c.51.39,1.12.59,1.62.93a4.56,4.56,0,0,0-1.93-.65C50.42,30.57,50.8,30.77,50.62,30.37Z"/><path class="cls-4" d="M51.33,39.46l.3.3a2.56,2.56,0,0,0-.16,1.42,2,2,0,0,1-.7-.57C51.18,40.33,51,39.75,51.33,39.46Z"/><path class="cls-4" d="M51.33,39.46c-.22-.11-.33,0-.37.21s-.12.62-.19.94l-.41-.27c-1-.64-1-.8-.74-1.88.08-.31.26-.25.41-.13C50.48,38.69,50.9,39.08,51.33,39.46Z"/><path class="cls-4" d="M51,39.67c0-.24.15-.32.37-.21-.36.29-.15.87-.56,1.15C50.84,40.29,50.91,40,51,39.67Z"/><path class="cls-4" d="M51.18,36.75a1.21,1.21,0,0,1-.12,1c0-.49-.08-1-.14-1.47s.18-.32.42-.24A.74.74,0,0,0,51.18,36.75Z"/><path class="cls-4" d="M51.34,36c-.24-.08-.47-.18-.42.24s.1,1,.14,1.47l-.41-.26a1.53,1.53,0,0,1-.87-1.93c0-.19.13-.43.36-.29C50.54,35.53,51.06,35.6,51.34,36Z"/><path class="cls-4" d="M50.75,42.34l.17.26c-.29.35-.32.81-.59,1.16l-.15-.29C50.62,43.22,50.54,42.7,50.75,42.34Z"/><path class="cls-4" d="M50.92,42.6c-.07.45,0,1-.59,1.16C50.6,43.41,50.63,43,50.92,42.6Z"/><path class="cls-4" d="M50.75,42.34c-.21.36-.13.88-.57,1.13C50.44,43.13,50.24,42.55,50.75,42.34Z"/><path class="cls-4" d="M49.91,45.6a3.18,3.18,0,0,1,.5,2.58,7.28,7.28,0,0,0-1.06-2C49.67,46.09,49.64,45.69,49.91,45.6Z"/><path class="cls-4" d="M47.56,14.63a18.32,18.32,0,0,1,5,3.17,8.59,8.59,0,0,1-5.23-2.37,4.8,4.8,0,0,0,.83,1.92,6.57,6.57,0,0,1-3.93-1.42c.12-.49-.33-.68-.53-1-.09-.16-.3-.29-.2-.49s.34-.14.52-.11c.91.12,1.83.21,2.74.41C47,14.78,47.32,14.91,47.56,14.63Z"/><path class="cls-4" d="M50.49,32.61c-.41-.06-.27.18-.21.37a8.27,8.27,0,0,1,.36,1.64,4.23,4.23,0,0,1-.54-1.8C50,32.57,50.16,32.32,50.49,32.61Z"/><path class="cls-4" d="M50.75,42.34c-.51.21-.31.79-.57,1.13-.52-.22-.8-.72-1.23-1-.16-.13.11-1.38.3-1.41s.21.07.3.13A4.57,4.57,0,0,1,50.75,42.34Z"/><path class="cls-4" d="M50.1,32.82a4.23,4.23,0,0,0,.54,1.8c-.72-.19-1.17-.57-1-1.39,0-.07,0-.14,0-.21,0-.3-.43-.7-.1-.85a1,1,0,0,1,1,.44C50.16,32.32,50,32.57,50.1,32.82Z"/><path class="cls-4" d="M50.19,30.62h0c-.25,0-.57-.37-.72,0s.1.67.51.77a.52.52,0,0,1,.13.06,1.55,1.55,0,0,1-.21,0,1.3,1.3,0,0,1-1-.88c0-.09,0-.21.08-.22A1.33,1.33,0,0,1,50.19,30.62Z"/><path class="cls-4" d="M50.07,31.48a.52.52,0,0,0-.13-.06c-.41-.1-.64-.41-.51-.77s.47-.06.72,0l-.62,0A1,1,0,0,0,50.07,31.48Z"/><path class="cls-4" d="M49.91,45.6a.34.34,0,0,0-.26,0,1.54,1.54,0,0,0,.12-.48A.55.55,0,0,1,49.91,45.6Z"/><path class="cls-4" d="M49.65,45.64a.34.34,0,0,1,.26,0c-.27.09-.24.49-.56.55a2.7,2.7,0,0,1,.3-.51Z"/><path class="cls-4" d="M49.77,45.16a1.54,1.54,0,0,1-.12.48.51.51,0,0,0-.16.24.61.61,0,0,1-.17.15A1.63,1.63,0,0,1,49.77,45.16Z"/><path class="cls-4" d="M49.65,45.64a.78.78,0,0,1-.16.24A.51.51,0,0,1,49.65,45.64Z"/><path class="cls-4" d="M49.77,45.16a1.63,1.63,0,0,0-.45.87c-.31-.35-.61-.72-1-1a.79.79,0,0,1-.22-1c.21-.65.4-.43.66-.12S49.45,44.73,49.77,45.16Z"/><path class="cls-4" d="M49.49,45.88a.77.77,0,0,1-.14.27l0-.12A.61.61,0,0,0,49.49,45.88Z"/><path class="cls-4" d="M49.34,28.92c-1.14-.07-.08.61-.29.86a1.8,1.8,0,0,1-.19-.2c-.14-.19-.27-.42-.1-.64S49.14,28.84,49.34,28.92Z"/><path class="cls-4" d="M49.13,48.9a2.51,2.51,0,0,1,0,1.1,9.92,9.92,0,0,0-2-3.24c-.33-.36,0-.73.23-.91s.4.18.53.38A7.84,7.84,0,0,1,49.13,48.9Z"/><path class="cls-4" d="M49.34,28.92c-.2-.08-.42-.17-.58,0s0,.45.1.64a1.8,1.8,0,0,0,.19.2c-.66.06-.6-.55-.81-.89-.09-.14.1-.23.25-.24A1,1,0,0,1,49.34,28.92Z"/><path class="cls-4" d="M48.22,33A18.18,18.18,0,0,1,47.87,41a20.86,20.86,0,0,1-1.67,4.94,6.82,6.82,0,0,1-1,1.86,39.78,39.78,0,0,0,2.08-9.18,22.87,22.87,0,0,0-.8-9.4A8.69,8.69,0,0,1,48.22,33Z"/><path class="cls-4" d="M47.67,49.6c.19.21.07.41-.11.54a3,3,0,0,1-1.54.62l1.22-1C47.37,49.63,47.44,49.35,47.67,49.6Z"/><path class="cls-4" d="M47.56,14.63a1.09,1.09,0,0,1-.62-.05,18.77,18.77,0,0,0-3.42-.47c-.41,0-.54.1-.28.47l1,1.35-1.4-1.07c-.37-.81-1-.84-1.77-.63a4.64,4.64,0,0,1-.83.14c-.26,0-.63,0-.72.2s.22.47.38.7c.51.76,1.35,1.19,2,1.87a9.41,9.41,0,0,1-3.84-3c-.15.31,0,.56,0,.82a10.65,10.65,0,0,0-2.72,1.08c-.59.26-.59.51-.22,1s1.06.83,1.41,1.42a9.27,9.27,0,0,1-3.45-2.41c0,.47.3.77.39,1.14a18.59,18.59,0,0,0-2.1,1.65c-.67.63-.67.64,0,1.25a5.65,5.65,0,0,0,1.9,1.17l-.06.1-.05,0h0a6.46,6.46,0,0,1-4.48-3.3c-.17-.29-.2-.48.11-.71,5.63-4.46,11.76-5.76,18.54-2.9Z"/><path class="cls-4" d="M46.94,14.58a1.09,1.09,0,0,0,.62.05c-.24.28-.52.15-.79.1-.91-.2-1.83-.29-2.74-.41-.18,0-.42-.08-.52.11s.11.33.2.49c.2.33.65.52.53,1l-1-1.35c-.26-.37-.13-.48.28-.47A18.77,18.77,0,0,1,46.94,14.58Z"/><path class="cls-4" d="M46.7,47.87a.65.65,0,0,1,.19,1,10.18,10.18,0,0,1-2.5,2.21l1.77-2.79C46.3,48.07,46.5,47.72,46.7,47.87Z"/><path class="cls-4" d="M45.09,23.24A7.13,7.13,0,0,1,46.2,24.8C45.79,24.31,45.21,23.94,45.09,23.24Z"/><path class="cls-4" d="M46.2,24.8c-.21,0-.42,0-.63,0a1.32,1.32,0,0,1-1-1.38c.08-.29.34-.15.53-.16h0C45.21,23.94,45.79,24.31,46.2,24.8Z"/><path class="cls-4" d="M43.46,16.37c.36.47.81.89,1.3,1.42a8.05,8.05,0,0,1-2.91-.65c.19-.36-.16-.43-.33-.56a8.8,8.8,0,0,1-1.58-1.53c-.12-.15-.35-.42.05-.45,1-.08,2-.71,2.85.26C42.72,15.49,43.13,15.93,43.46,16.37Z"/><path class="cls-4" d="M42.91,24.19a6.07,6.07,0,0,1-.35,4c-.17-.73-.27-1.23-.4-1.73s-.46-.81-1.13-.59a19,19,0,0,0-4.8,2.43,2.82,2.82,0,0,1-.66.37,14.35,14.35,0,0,1,3.58-3.24,15.53,15.53,0,0,1,3.12-1.52C42.63,23.77,42.82,23.84,42.91,24.19Z"/><path class="cls-4" d="M41.52,16.58c.17.13.52.2.33.56-.6-.68-1.44-1.11-2-1.87-.16-.23-.48-.45-.38-.7s.46-.16.72-.2a4.64,4.64,0,0,0,.83-.14c.75-.21,1.4-.18,1.77.63-.87-1-1.89-.34-2.85-.26-.4,0-.17.3-.05.45A8.8,8.8,0,0,0,41.52,16.58Z"/><path class="cls-4" d="M41.06,39.21a9.12,9.12,0,0,1,.24,5.07c-.36,2.19-1.15,4.29-1.58,6.46a25.9,25.9,0,0,0-.54,4.12,6.23,6.23,0,0,1-1.65-2.64,13.6,13.6,0,0,0-1.17,3.44,41.75,41.75,0,0,0-.69,5.68,10.26,10.26,0,0,1-1.45,4c-.36-.53-.35-1.21-1-1.7-.58,4.26-3.94,6.59-6.31,9.72-.19-.65.05-1.24-.26-1.87a13.2,13.2,0,0,1-1.81,2.41c-.06.07-.1.19-.17.23-1.05.52-1,1.45-1,2.42s0,1.86,0,2.78a.47.47,0,0,1,0,.64,1.46,1.46,0,0,0-.88-.38.11.11,0,0,0,0-.08c-.53-.6-1.15-1.12-1.63-1.78L20,76.52c.11-.26-.31-.49-.53-.68-1.06-.87-.66-2-.53-3v1.42c.53-1.31.88-2.65,1.42-3.92a11.53,11.53,0,0,1,2.72-4.51,1.5,1.5,0,0,0,.59-1.39c1.45-.43,2.15-1.62,2.82-2.82s1.11-2.36,1.8-3.47c.12-.2.22-.49.48-.47s0,.44.34.6a12.63,12.63,0,0,0,1.61-4.81c.81,3.35-1.2,6.12-1.84,9.21A3.92,3.92,0,0,1,28,60.75a9.49,9.49,0,0,0-1,2.64,14.84,14.84,0,0,1-1.19,2.74,4.49,4.49,0,0,1-.4.57c-.19.24-.37.56-.63.66-1.15.46-1.17,1.38-1.07,2.37,0,.37-.13.76.14,1.1a9.55,9.55,0,0,0-.17,2.46c1.85-1.27,2.74-3.07,3.79-4.89h0a11.35,11.35,0,0,1,.21,2.31,14.63,14.63,0,0,0,3.24-6.06h0a6.5,6.5,0,0,1,.32,2.06A11.71,11.71,0,0,0,33,61.86h0l.88.8a22.28,22.28,0,0,0,.39-5.15l0,0c.42.19.36.61.75.75a21.53,21.53,0,0,1,2.49-8.35h0c.44.41.31,1,.78,1.36.1-.45.19-.86.29-1.26a32,32,0,0,1,1.72-4.87A10.26,10.26,0,0,0,41.06,39.21Z"/><path class="cls-4" d="M41.06,39.21a10.26,10.26,0,0,1-.74,5.89A32,32,0,0,0,38.6,50c-.1.4-.19.81-.29,1.26-.47-.33-.34-.95-.78-1.36h.07c.31,0,.36.34.47.58,0,.08,0,.19.18.23a36.71,36.71,0,0,1,2.12-6.24,10.55,10.55,0,0,0,.64-4.6A1.13,1.13,0,0,1,41.06,39.21Z"/><path class="cls-4" d="M41,39.84a10.55,10.55,0,0,1-.64,4.6,36.71,36.71,0,0,0-2.12,6.24c-.15,0-.15-.15-.18-.23-.11-.24-.16-.55-.47-.58h-.08c-.25,0-.35.29-.46.49q-.35.66-.63,1.35a22.35,22.35,0,0,0-1.54,6c-.22-.08-.3-.41-.56-.27l0,0,0,0v0a.69.69,0,0,0-.21.57c0,.43,0,.86,0,1.28a17.57,17.57,0,0,1-.24,2.81.43.43,0,0,1-.37-.14c-.19-.16-.33-.2-.45-.17h0c-.13,0-.23.21-.29.45a4.21,4.21,0,0,0-.09.49,10.11,10.11,0,0,1-1.18,3.35,3.63,3.63,0,0,0-.13-1.05c0-.18-.06-.41-.29-.44h0a.17.17,0,0,0,0-.05v.05c-.23,0-.27.24-.33.42a15.72,15.72,0,0,1-.82,2.2,14.43,14.43,0,0,1-1.91,3,5.71,5.71,0,0,0-.14-1.35c0-.18,0-.43-.25-.48h0v0l0,0c-.23,0-.34.2-.44.37a18.1,18.1,0,0,1-1.75,2.76,5.8,5.8,0,0,1-1.34,1.32c-.13-.72.06-1.38-.09-2a8.66,8.66,0,0,0,3.63-4.64c.3.16.29.46.41.69s0,.44.26.45.26-.24.37-.38a11.7,11.7,0,0,0,2.19-5.62c.44.43.29,1,.6,1.49a10.42,10.42,0,0,0,1.38-4.55,12.31,12.31,0,0,1,1-4.18c.39.24.36.7.67,1,1.3-2.78,1.47-5.86,2.64-8.81a5.41,5.41,0,0,0,.71,2.14,2.3,2.3,0,0,0,.5-1c.43-1,.89-2,1.41-3a9.71,9.71,0,0,0,1.32-4.74c0-.18-.06-.39.13-.52A1.13,1.13,0,0,0,41,39.84Z"/><path class="cls-4" d="M41.06,19.07a8.66,8.66,0,0,1-4.56-.6c.18-.34-.13-.46-.31-.6a5.35,5.35,0,0,1-.77-.73c-.5-.6-.47-.65.18-1S37.28,15.47,38,15A8.57,8.57,0,0,0,41.06,19.07Z"/><path class="cls-4" d="M40.08,10.76a6.29,6.29,0,0,0,.67.37,18.9,18.9,0,0,1-3.1.27,15.55,15.55,0,0,0-5-2.18,23,23,0,0,1,3.85,2.44L33,12.7c-.37-.21-.75-.4-1.12-.62A11.49,11.49,0,0,0,26,10.44a4.29,4.29,0,0,0-2.06.34,13.49,13.49,0,0,1,5.82,1.9c.44.25,1.08.34,1.19,1a1.44,1.44,0,0,1-.75-.16,17.52,17.52,0,0,0-3.72-1.32,5.83,5.83,0,0,0-5.06.83c-.33.26-.39.07-.44-.21a2.63,2.63,0,0,1,1-2.22c-1.73.22-3.4,1.33-3.71,2.89-.12.58-.46.44-.77.26a8.2,8.2,0,0,1-1.64-1.26C16.1,15.88,18.53,17,21.08,18c-1.77,1-6,.86-7.09-.51a19.21,19.21,0,0,0,3,.06c-4.42-2.11-6.79-5.93-4.89-11-.34,0-.47.28-.63.5a6.71,6.71,0,0,0-2.28,5.22c0,.26,0,.52,0,.77a6,6,0,0,1,.56-5.74,12.52,12.52,0,0,1,5.63-4.51,15.72,15.72,0,0,1,3.23-1.08,10,10,0,0,0-4.81,5.68A.65.65,0,0,0,14,7.08a12.29,12.29,0,0,1,5.09-4,18,18,0,0,1,10.45-.93,7.71,7.71,0,0,0,2.38.39c.06,0,.16.06.17.1.06.27-.16.16-.26.16a10.68,10.68,0,0,0-3.14.31A5.56,5.56,0,0,0,26.28,4c-.3,0-.61-.09-.91-.11a12.6,12.6,0,0,0-6.75,1.28c-2.17,1.12-4,2.59-4.65,5.07a3.75,3.75,0,0,0-.14,2,8.23,8.23,0,0,1,2.44-3.36C19,6.71,22.18,6.39,25.49,6.9a30.31,30.31,0,0,1,4.68,1.26,7.62,7.62,0,0,0-2.38-1.7,15.78,15.78,0,0,0-2.51-.85,8.91,8.91,0,0,1,1.71,0,28.42,28.42,0,0,1,9.25,2.81c.2.1.39.38.68.18C38,9.3,39,10,40.08,10.76Z"/><path class="cls-4" d="M38.77,32.65a.51.51,0,0,1,.48.21c-2.78.36-4.85,2-6.88,3.7A5.55,5.55,0,0,1,29.64,38a4.32,4.32,0,0,1-1.25-.1c-.11.26.06.38.16.52a8.17,8.17,0,0,1,1.35,7.53,20.35,20.35,0,0,0-1,4.21,4.34,4.34,0,0,1-1.83-2.21,1.81,1.81,0,0,0,.22,1.48c.41.85.9,1.67,1.24,2.55a3.37,3.37,0,0,1-.32,3.74,2.47,2.47,0,0,1-.47-.29,1.79,1.79,0,0,0-2.16-.26c-.19.11-.39.44-.57.14s.19-.41.4-.53a.94.94,0,0,1,.74-.12,4.25,4.25,0,0,0,1.13.06c.21,0,.57.1.52-.25s-.11-.67-.49-.58c-.71.18-1.47-.61-2.15.1,0,0-.15-.08-.23-.13a7.4,7.4,0,0,1,1.27-1.23c-.09.26-.17.52-.26.77a1.67,1.67,0,0,1,2.17,1c.18-.16,0-.42.23-.51.3.25,0,.65.26.91.27-1.92-.65-2.73-2.87-2.55.46-.47,1-.28,1.57-.31a1.17,1.17,0,0,0,0-.2c-1.76-3.16-1.57-6.46-.69-9.8.07-.28.06-.73.4-.76s.46.37.63.62a19.08,19.08,0,0,1,1.1,2.1c.22-1.8.09-3.33-1.07-4.56a3.45,3.45,0,0,0-3.78-1,2,2,0,0,0-.09-.9l-.1-.06c.24-.22.2-.53.21-.81a11.81,11.81,0,0,1,1.88,0,7.92,7.92,0,0,0,5.4-1.5,13.74,13.74,0,0,1,5.58-2.15A6.52,6.52,0,0,0,38.77,32.65Z"/><path class="cls-4" d="M38.77,32.65a13,13,0,0,0-3.23.22,18.88,18.88,0,0,0-5.28,2.42,5.89,5.89,0,0,1-3.62,1c-.71-.06-1.43,0-2.14,0a1.41,1.41,0,0,0-.61.08c0-.14,0-.28,0-.42a8.61,8.61,0,0,0,7.53-2.19c-1.33.12-2.42,1-3.85,1.14h0l0,0a13.57,13.57,0,0,1,2.91-2.3,1.22,1.22,0,0,0-.74.05c-2,.57-3.68,1.94-5.81,2v0c0-.94,0-1.89,0-2.83.35.11.61,0,.81-.41.11.12-.23.41.1.5s.39-.13.52-.29.11-.16.16-.24a2.9,2.9,0,0,0,.1-2.67,8.5,8.5,0,0,1-.59-3c.26.14.4.3.59.39s.34.19.5,0l.08,0L26.12,26c.12-.15,0-.31-.05-.45a11.54,11.54,0,0,1-.63-1.27c-.07-.14-.13-.32-.36-.26.35-.24.53-.11.71.24s.58.92.87,1.38a7.18,7.18,0,0,0,1.75,2.09c.1.1.41.25,0,.32a7.18,7.18,0,0,1-2.45-1.49c-.08-.07-.15-.24-.28-.13s0,.22,0,.33a7,7,0,0,0,1.54,3.82c.34.42.22.6-.07.92a10.4,10.4,0,0,1-2.65,1.95A3.4,3.4,0,0,0,26.69,33c.88-.27,1.68-.73,2.58-.95a15.54,15.54,0,0,1,6.07-.4c-1.24.4-2.51.36-3.44,1.28C34.18,32.57,36.45,32.07,38.77,32.65Z"/><path class="cls-4" d="M35.54,32.87a13,13,0,0,1,3.23-.22,6.52,6.52,0,0,1-2,.19A13.74,13.74,0,0,0,31.17,35a7.92,7.92,0,0,1-5.4,1.5,11.81,11.81,0,0,0-1.88,0h0v-.13a1.41,1.41,0,0,1,.61-.08c.71,0,1.43-.05,2.14,0a5.89,5.89,0,0,0,3.62-1A18.88,18.88,0,0,1,35.54,32.87Z"/><path class="cls-4" d="M38,15h0c-.75.5-1.65.67-2.43,1.13s-.68.44-.18,1a5.35,5.35,0,0,0,.77.73c.18.14.49.26.31.6-.35-.59-1-.88-1.41-1.42s-.37-.74.22-1A10.65,10.65,0,0,1,38,15Z"/><path class="cls-4" d="M37.47,35.84c.17-.09.22.25.16.37-.42.86-.64,1.87-1.69,2.26a1.91,1.91,0,0,0,.72-1.19c.05-.48-.16-.65-.63-.56a3.79,3.79,0,0,0-1,.46C35.67,36.38,36.68,36.3,37.47,35.84Z"/><path class="cls-4" d="M37.65,11.4c-.35.23-.78.14-1.16.26.08-.24-.1-.35-.25-.45a15.33,15.33,0,0,0-3.17-1.82c.16,0,.31.12.46.18C34.93,10.12,36.29,10.77,37.65,11.4Z"/><path class="cls-4" d="M37.06,50.37c.11-.2.21-.46.46-.49A21.53,21.53,0,0,0,35,58.23c-.39-.14-.33-.56-.75-.75l0,0c.26-.14.34.19.56.27a22.35,22.35,0,0,1,1.54-6Q36.71,51,37.06,50.37Z"/><path class="cls-4" d="M36.92,8.57a.79.79,0,0,1-.51-.22A23,23,0,0,0,30.6,6.08a17,17,0,0,0-4.7-.71.89.89,0,0,0-.88.36,10.69,10.69,0,0,1,4.38,2,28,28,0,0,0-4-1,13.11,13.11,0,0,0-5.71.23A8.47,8.47,0,0,0,14,11.52a6.87,6.87,0,0,1,3.24-5.3,12.36,12.36,0,0,1,8.36-2.16c.25,0,.52.16.73-.1a18.78,18.78,0,0,1,6.5,2.14A34,34,0,0,1,36.92,8.57Z"/><path class="cls-4" d="M36.41,8.35a.79.79,0,0,0,.51.22c-.29.2-.48-.08-.68-.18A28.42,28.42,0,0,0,27,5.58a8.91,8.91,0,0,0-1.71,0,15.78,15.78,0,0,1,2.51.85,7.62,7.62,0,0,1,2.38,1.7A30.31,30.31,0,0,0,25.49,6.9c-3.31-.51-6.46-.19-9.22,1.95a8.23,8.23,0,0,0-2.44,3.36,3.75,3.75,0,0,1,.14-2c.68-2.48,2.48-3.95,4.65-5.07a12.6,12.6,0,0,1,6.75-1.28c.3,0,.61.07.91.11-.21.26-.48.12-.73.1a12.36,12.36,0,0,0-8.36,2.16A6.87,6.87,0,0,0,14,11.52a8.47,8.47,0,0,1,5.76-4.59,13.11,13.11,0,0,1,5.71-.23,28,28,0,0,1,4,1,10.69,10.69,0,0,0-4.38-2,.89.89,0,0,1,.88-.36,17,17,0,0,1,4.7.71A23,23,0,0,1,36.41,8.35Z"/><path class="cls-4" d="M36,36.72c.47-.09.68.08.63.56a1.91,1.91,0,0,1-.72,1.19c.15-.31.29-.62.45-.93s.22-.48,0-.65-.45,0-.64.08a1.14,1.14,0,0,1-.71.21A3.79,3.79,0,0,1,36,36.72Z"/><path class="cls-4" d="M36.24,11.21c.15.1.33.21.25.45a23,23,0,0,0-3.85-2.44,15.55,15.55,0,0,1,5,2.18c-1.36-.63-2.72-1.28-4.12-1.83-.15-.06-.3-.13-.46-.18A15.33,15.33,0,0,1,36.24,11.21Z"/><path class="cls-4" d="M36.43,36.89c.18.17.06.43,0,.65s-.3.62-.45.93c-.95.67-2,.35-3.07.23a7.35,7.35,0,0,1,2.21-1.52,1.14,1.14,0,0,0,.71-.21C36,36.88,36.25,36.7,36.43,36.89Z"/><path class="cls-4" d="M36.71,40.16a4.59,4.59,0,0,1-.93,1.89A14,14,0,0,0,33,47.32a7.5,7.5,0,0,1-1.64,2.59C32.13,47,33,44.2,32.7,41.11a1.39,1.39,0,0,1,.8,1.08c.18.67.5.54.89.26A10.29,10.29,0,0,0,36.71,40.16Z"/><path class="cls-4" d="M33.44,17.2a12.81,12.81,0,0,0,3.79,4,8.72,8.72,0,0,1-4.09.16h0c.44-.13.15-.26,0-.35a9.39,9.39,0,0,1-1.62-1c-.41-.33-.51-.65-.06-1a10.91,10.91,0,0,1,1-.82A2.64,2.64,0,0,0,33.44,17.2Z"/><path class="cls-4" d="M34.26,57.5a22.28,22.28,0,0,1-.39,5.15l-.88-.8c.12,0,.26,0,.45.17a.43.43,0,0,0,.37.14,17.57,17.57,0,0,0,.24-2.81c0-.42,0-.85,0-1.28A.69.69,0,0,1,34.26,57.5Z"/><path class="cls-4" d="M33.44,17.2h0a2.64,2.64,0,0,1-1,1,10.91,10.91,0,0,0-1,.82c-.45.39-.35.71.06,1a9.39,9.39,0,0,0,1.62,1c.18.09.47.22,0,.35l.05,0,.06-.1a5.65,5.65,0,0,1-1.9-1.17c-.69-.61-.69-.62,0-1.25A18.59,18.59,0,0,1,33.44,17.2Z"/><path class="cls-4" d="M33,12.7l-2,1c.2-.36-.07-.54-.3-.69A14.54,14.54,0,0,0,25,10.72c.38,0,.8-.13,1.23-.1A11.85,11.85,0,0,1,32,12.38,1.57,1.57,0,0,0,33,12.7Z"/><path class="cls-4" d="M33,12.7a1.57,1.57,0,0,1-1-.32,11.85,11.85,0,0,0-5.78-1.76c-.43,0-.85.11-1.23.1l-.25,0a1.07,1.07,0,0,0,.25,0A14.54,14.54,0,0,1,30.65,13c.23.15.5.33.3.69-.11-.66-.75-.75-1.19-1a13.49,13.49,0,0,0-5.82-1.9A4.29,4.29,0,0,1,26,10.44a11.49,11.49,0,0,1,5.84,1.64C32.21,12.3,32.59,12.49,33,12.7Z"/><path class="cls-4" d="M32.69,62.31c.06-.24.16-.41.29-.45a11.71,11.71,0,0,1-1.7,4.85A6.5,6.5,0,0,0,31,64.65h0c.23,0,.25.26.29.44a3.63,3.63,0,0,1,.13,1.05A10.11,10.11,0,0,0,32.6,62.8,4.21,4.21,0,0,1,32.69,62.31Z"/><path class="cls-4" d="M31.94,2.58c-.47,0-.84-.29-1.28-.38a22.15,22.15,0,0,0-7.57-.38,13.6,13.6,0,0,0-9,4.84c.15-.3.33-.7.57-1.09a10.49,10.49,0,0,1,3.6-3.47c.19-.12.5-.24.38-.52s-.38-.12-.58-.06A16.23,16.23,0,0,0,10.57,5.8a6.85,6.85,0,0,0-1.88,6.47c.06.28.05.64.46.69.08.24.16.48.24.75A1.42,1.42,0,0,1,8,12.58,11.31,11.31,0,0,1,10.23,2c.08.68.14,1.23.21,1.78,0,.23,0,.53.24.62s.35-.19.5-.32A16.08,16.08,0,0,1,18.88.29,19.64,19.64,0,0,1,31.94,2.58Z"/><path class="cls-4" d="M18.57,1.63a15.72,15.72,0,0,0-3.23,1.08A12.52,12.52,0,0,0,9.71,7.22,6,6,0,0,0,9.15,13c-.41-.05-.4-.41-.46-.69A6.85,6.85,0,0,1,10.57,5.8a16.23,16.23,0,0,1,7.51-4.28c.2-.06.48-.16.58.06s-.19.4-.38.52a10.49,10.49,0,0,0-3.6,3.47c-.24.39-.42.79-.57,1.09a13.6,13.6,0,0,1,9-4.84,22.15,22.15,0,0,1,7.57.38c.44.09.81.39,1.28.38a7.71,7.71,0,0,1-2.38-.39,18,18,0,0,0-10.45.93,12.29,12.29,0,0,0-5.09,4,.65.65,0,0,1-.26.23A10,10,0,0,1,18.57,1.63Z"/><path class="cls-4" d="M29.17,21a11,11,0,0,0,4.26,3.16,3.11,3.11,0,0,1-3.16,1.11A9.06,9.06,0,0,1,28,23.57a.73.73,0,0,1,0-1.14C28.41,22,28.78,21.44,29.17,21Z"/><path class="cls-4" d="M30.2,13.52a1.44,1.44,0,0,0,.75.16,1,1,0,0,1-.4.09,2.27,2.27,0,0,1-.94-.31,14.5,14.5,0,0,0-3.87-1.2,5.49,5.49,0,0,0-4.08.81c-.54.36-.8.21-.86-.46a2.22,2.22,0,0,1,.64-1.69,3.81,3.81,0,0,0-3,2.54c-.25.64-.45.73-1.06.41A6.93,6.93,0,0,1,16.08,13a4.24,4.24,0,0,0,1.57,2.94,9.52,9.52,0,0,0,2.9,1.62c.24.08.57.15.56.46s-.33.38-.58.44a8.71,8.71,0,0,1-5.85-.27c-.34-.14-.86-.31-.78-.71s.57-.11.88-.12a10.63,10.63,0,0,1,1.59,0,8.56,8.56,0,0,1-5-5.91,7.34,7.34,0,0,1,.26-4.07c0-.15.38-.55-.21-.42.16-.22.29-.48.63-.5-1.9,5.11.47,8.93,4.89,11a19.21,19.21,0,0,1-3-.06c1.11,1.37,5.32,1.55,7.09.51-2.55-1-5-2.08-5.26-5.47a8.2,8.2,0,0,0,1.64,1.26c.31.18.65.32.77-.26.31-1.56,2-2.67,3.71-2.89a2.63,2.63,0,0,0-1,2.22c.05.28.11.47.44.21a5.83,5.83,0,0,1,5.06-.83A17.52,17.52,0,0,1,30.2,13.52Z"/><path class="cls-4" d="M30.55,13.77a1,1,0,0,0,.4-.09,16.65,16.65,0,0,0-4.05,3c-.5.56-1.18.5-1.79.73,0,0,.05.09.08.09,1,.05.95.05.52.93A8.35,8.35,0,0,0,25.25,22c0,.24.18.61-.3.65l-.1,0h0a6,6,0,0,0-1.88.13,29.11,29.11,0,0,1-4.38,0,10.36,10.36,0,0,1-4-1.36l2.15-.86A13.58,13.58,0,0,1,11,18.19a16.83,16.83,0,0,1-4.24-4.38A14.62,14.62,0,0,0,11,15.26,9.74,9.74,0,0,1,10.14,12a8.64,8.64,0,0,1,1.21-4.6c.08-.14.33-.26.08-.47.59-.13.26.27.21.42a7.34,7.34,0,0,0-.26,4.07,8.56,8.56,0,0,0,5,5.91,10.63,10.63,0,0,0-1.59,0c-.31,0-.8-.27-.88.12s.44.57.78.71a8.71,8.71,0,0,0,5.85.27c.25-.06.57-.13.58-.44s-.32-.38-.56-.46a9.52,9.52,0,0,1-2.9-1.62A4.24,4.24,0,0,1,16.08,13a6.93,6.93,0,0,0,1.27.88c.61.32.81.23,1.06-.41a3.81,3.81,0,0,1,3-2.54,2.22,2.22,0,0,0-.64,1.69c.06.67.32.82.86.46a5.49,5.49,0,0,1,4.08-.81,14.5,14.5,0,0,1,3.87,1.2A2.27,2.27,0,0,0,30.55,13.77Z"/><path class="cls-4" d="M30.6,65.07c.06-.18.1-.41.33-.42a14.63,14.63,0,0,1-3.24,6.06,11.35,11.35,0,0,0-.21-2.31c.22,0,.21.3.25.48a5.71,5.71,0,0,1,.14,1.35,14.43,14.43,0,0,0,1.91-3A15.72,15.72,0,0,0,30.6,65.07Z"/><path class="cls-4" d="M30.69,28.42a4.24,4.24,0,0,1-2.31-.34c.66-.09.2-.4.07-.52a22.76,22.76,0,0,1-1.79-1.89A14.13,14.13,0,0,0,30.69,28.42Z"/><path class="cls-4" d="M29.71,32.59a1.22,1.22,0,0,1,.74-.05,13.57,13.57,0,0,0-2.91,2.3c-.12-.25.1-.46.29-.62a12.64,12.64,0,0,1,2.11-1.53c-1.29.27-2.43,1.13-3.74,1.59a4.67,4.67,0,0,1-2.3.36v0C26,34.53,27.74,33.16,29.71,32.59Z"/><path class="cls-4" d="M31,33.93c-.75.37-1.31.92-2,1.26a9.91,9.91,0,0,1-4.6.66,2.13,2.13,0,0,0-.5,0c0-.39,0-.78,0-1.18a4.67,4.67,0,0,0,2.3-.36c1.31-.46,2.45-1.32,3.74-1.59a12.64,12.64,0,0,0-2.11,1.53c-.19.16-.41.37-.29.62,0,0,0,0-.05.07l.08,0c.14.23.43.13.64.07C29.15,34.68,30.06,34.3,31,33.93Z"/><path class="cls-4" d="M29,35.19c.72-.34,1.28-.89,2-1.26-1,.37-1.87.75-2.81,1-.21.06-.5.16-.64-.07,1.43-.19,2.52-1,3.85-1.14a8.61,8.61,0,0,1-7.53,2.19v-.12a2.13,2.13,0,0,1,.5,0A9.91,9.91,0,0,0,29,35.19Z"/><path class="cls-4" d="M28,23.57a9.06,9.06,0,0,0,2.25,1.65,4.49,4.49,0,0,1-2.47-1.69c-.17-.24-.35-.5-.17-.78A5.34,5.34,0,0,1,29.17,21c-.39.49-.76,1-1.17,1.48A.73.73,0,0,0,28,23.57Z"/><path class="cls-4" d="M27.8,23.53a4.49,4.49,0,0,0,2.47,1.69,4.07,4.07,0,0,1-3.51-2.71c-.6-1.62,0-3,1.11-4.36a8.9,8.9,0,0,0,1.3,2.8,5.34,5.34,0,0,0-1.54,1.8C27.45,23,27.63,23.29,27.8,23.53Z"/><path class="cls-4" d="M27.65,39.28c1.16,1.23,1.29,2.76,1.07,4.56a19.08,19.08,0,0,0-1.1-2.1c-.17-.25-.34-.64-.63-.62s-.33.48-.4.76c-.88,3.34-1.07,6.64.69,9.8a1.17,1.17,0,0,1,0,.2c-.54,0-1.11-.16-1.57.31,2.22-.18,3.14.63,2.87,2.55-.25-.26,0-.66-.26-.91-.23.09-.05.35-.23.51a1.67,1.67,0,0,0-2.17-1c.09-.25.17-.51.26-.77a.11.11,0,0,1,.17,0c.15.18.07.35-.06.53a1.87,1.87,0,0,1,1.51.49c.13.11.18.21.44.14s.22,0,.26.06a2.71,2.71,0,0,1,0,.41c0-.09,0-.3,0-.41a2,2,0,0,0-2.13-1.47c-.25,0-.69.22-.71-.17s.43-.43.77-.48a1.42,1.42,0,0,0,.58-.11,9,9,0,0,1-1.17-3.38,15.27,15.27,0,0,1,.61-6.68c.21-.69.59-.75,1.06-.19a8.82,8.82,0,0,1,1.05,1.88,5.68,5.68,0,0,0-.3-2.46,3.44,3.44,0,0,0-4-2.39,1.06,1.06,0,0,1-.46,0s0-.07,0-.11v0A3.45,3.45,0,0,1,27.65,39.28Z"/><path class="cls-4" d="M28.58,30.46c.16.13.26.26,0,.43A7.84,7.84,0,0,0,26.69,33c-.53,0-1,.35-1.51.24a8.76,8.76,0,0,0,2.15-1.7.66.66,0,0,0,.06-1,11.7,11.7,0,0,1-1.71-3.79A10.58,10.58,0,0,0,28.58,30.46Z"/><path class="cls-4" d="M28.31,40.76a5.68,5.68,0,0,1,.3,2.46,8.82,8.82,0,0,0-1.05-1.88c-.47-.56-.85-.5-1.06.19a15.27,15.27,0,0,0-.61,6.68,9,9,0,0,0,1.17,3.38,1.42,1.42,0,0,1-.58.11c-.34,0-.79.11-.77.48s.46.16.71.17a2,2,0,0,1,2.13,1.47c0-.06-.12-.09-.26-.06s-.31,0-.44-.14a1.87,1.87,0,0,0-1.51-.49c.13-.18.21-.35.06-.53a.11.11,0,0,0-.17,0,6.36,6.36,0,0,0-2.54.81A2.43,2.43,0,0,0,23.9,52v-.07a5.07,5.07,0,0,1,1.53-.66c.63-.14.73-.42.5-1a12.8,12.8,0,0,1-.29-9.14C26,39.87,26,39.87,27.15,40a3,3,0,0,0-3.28-1,.56.56,0,0,0-.15-.32l0,0a1.09,1.09,0,0,0,.09-.23,1.06,1.06,0,0,0,.46,0A3.44,3.44,0,0,1,28.31,40.76Z"/><path class="cls-4" d="M28.55,53.82c.07.11,0,.32,0,.41A2.71,2.71,0,0,0,28.55,53.82Z"/><path class="cls-4" d="M28.45,27.56c.13.12.59.43-.07.52.44-.07.13-.22,0-.32a7.18,7.18,0,0,1-1.75-2.09A22.76,22.76,0,0,0,28.45,27.56Z"/><path class="cls-4" d="M28.24,55.71a.52.52,0,0,1-.57-.17,1.64,1.64,0,0,0-2-.18c-.25.12-.56.34-.74,0s.16-.58.44-.76c.46-.27.93-.05,1.4-.08.24,0,.65.13.68-.16s-.41-.29-.67-.31c-.5,0-1-.3-1.51,0a.21.21,0,0,1-.32-.23c.08,0,.21.15.23.13.68-.71,1.44.08,2.15-.1.38-.09.46.37.49.58s-.31.25-.52.25a4.25,4.25,0,0,1-1.13-.06.94.94,0,0,0-.74.12c-.21.12-.59.22-.4.53s.38,0,.57-.14a1.79,1.79,0,0,1,2.16.26A2.47,2.47,0,0,0,28.24,55.71Z"/><path class="cls-4" d="M27.67,55.54a.52.52,0,0,0,.57.17,2.17,2.17,0,0,1-1.75.75,5,5,0,0,1-.76-.06c-.72-.11-1-.72-1.16-1.37l0-.2a.9.9,0,0,1,.42-1,.21.21,0,0,0,.32.23c.51-.33,1-.07,1.51,0,.26,0,.7-.09.67.31s-.44.15-.68.16c-.47,0-.94-.19-1.4.08-.28.18-.65.37-.44.76s.49.12.74,0A1.64,1.64,0,0,1,27.67,55.54Z"/><path class="cls-4" d="M27,68.77c.1-.17.21-.4.44-.37-1.05,1.82-1.94,3.62-3.79,4.89a9.55,9.55,0,0,1,.17-2.46c.15.64,0,1.3.09,2a5.8,5.8,0,0,0,1.34-1.32A18.1,18.1,0,0,0,27,68.77Z"/><path class="cls-4" d="M27.39,30.58a.66.66,0,0,1-.06,1,8.76,8.76,0,0,1-2.15,1.7c.51.11,1-.28,1.51-.24a3.4,3.4,0,0,1-2.19.44,10.4,10.4,0,0,0,2.65-1.95c.29-.32.41-.5.07-.92a7,7,0,0,1-1.54-3.82A11.7,11.7,0,0,0,27.39,30.58Z"/><path class="cls-4" d="M27.15,40c-1.12-.11-1.12-.11-1.51,1.11a12.8,12.8,0,0,0,.29,9.14c.23.57.13.85-.5,1a5.07,5.07,0,0,0-1.53.66v-.15a2.92,2.92,0,0,1,1.27-.63c.7-.26.74-.32.47-1a14.17,14.17,0,0,1,0-9.88c.16-.48.47-.61,1-.44a2.85,2.85,0,0,0-2.16-.66,1.93,1.93,0,0,1-.63,0h0c0-.05,0-.1,0-.14A3,3,0,0,1,27.15,40Z"/><path class="cls-4" d="M26.68,39.75c-.54-.17-.85,0-1,.44a14.17,14.17,0,0,0,0,9.88c.27.71.23.77-.47,1a2.92,2.92,0,0,0-1.27.63c0-1.08,0-2.17,0-3.25,0-3.12,0-6.23,0-9.35a1.93,1.93,0,0,0,.63,0A2.85,2.85,0,0,1,26.68,39.75Z"/><path class="cls-4" d="M26.07,25.58c.08.14.17.3.05.45-.49-.68-.67-1.37-1-2,.23-.06.29.12.36.26A11.54,11.54,0,0,0,26.07,25.58Z"/><path class="cls-4" d="M26.12,26h0l0,0a5.37,5.37,0,0,1-1.26-.82,10.91,10.91,0,0,0,.07,1.56c.13.89.51,1.71.72,2.58a2.07,2.07,0,0,1-.83,2.31c-.09-.19.24-.34.05-.58a1.4,1.4,0,0,1-.94.53v0c0-2.11,0-4.21,0-6.32,0-.31.1-.75-.43-.81l1.21-.4.4,0C25.45,24.66,25.63,25.35,26.12,26Z"/><path class="cls-4" d="M26.09,26.07c-.16.15-.33,0-.5,0s-.33-.25-.59-.39a8.5,8.5,0,0,0,.59,3,2.9,2.9,0,0,1-.1,2.67c0,.08-.1.16-.16.24s-.28.35-.52.29,0-.38-.1-.5c-.2.37-.46.52-.81.41v-.08a1.4,1.4,0,0,0,.94-.53c.19.24-.14.39-.05.58a2.07,2.07,0,0,0,.83-2.31c-.21-.87-.59-1.69-.72-2.58a10.91,10.91,0,0,1-.07-1.56A5.37,5.37,0,0,0,26.09,26.07Z"/><path class="cls-4" d="M26.51,57.45a3.36,3.36,0,0,1-2.8,2c.06-.15.07-.26-.07-.31h0a1,1,0,0,0,0-1.15A7.92,7.92,0,0,0,26.51,57.45Z"/><path class="cls-4" d="M25,22.64l-.86.29c-1.46.22-2.92.56-4.41.66a11.06,11.06,0,0,1-7.15-1.83,12.86,12.86,0,0,0,2-.39,4.12,4.12,0,0,0,2.34,1.21,16.65,16.65,0,0,0,7.3.14,1.78,1.78,0,0,1,.65-.11h0Z"/><path class="cls-4" d="M24.7,10.69l.25,0A1.07,1.07,0,0,1,24.7,10.69Z"/><path class="cls-4" d="M24.85,22.61a1.78,1.78,0,0,0-.65.11,16.65,16.65,0,0,1-7.3-.14,4.12,4.12,0,0,1-2.34-1.21,10.36,10.36,0,0,0,4,1.36,29.11,29.11,0,0,0,4.38,0A6,6,0,0,1,24.85,22.61Z"/><path class="cls-4" d="M23.92,48.48c0,1.08,0,2.17,0,3.25a1.55,1.55,0,0,0-.2.28V39a.58.58,0,0,0,.18.11h0C24,42.25,23.9,45.36,23.92,48.48Z"/><path class="cls-4" d="M23.9,25.28c0,2.11,0,4.21,0,6.32v0h-.19c0-2.14,0-4.28,0-6.43,0-.25.14-.58-.21-.75C24,24.53,23.9,25,23.9,25.28Z"/><path class="cls-4" d="M23.9,31.73c0,.94,0,1.89,0,2.83v0h-.19v-3A1,1,0,0,0,23.9,31.73Z"/><path class="cls-4" d="M23.9,51.73v.15l-.2.13A1.55,1.55,0,0,1,23.9,51.73Z"/><path class="cls-4" d="M23.9,34.64c0,.4,0,.79,0,1.18a.33.33,0,0,0-.18.1V34.61Z"/><path class="cls-4" d="M23.9,31.65v.08a1,1,0,0,1-.19-.08Z"/><path class="cls-4" d="M23.9,52a2.43,2.43,0,0,1-.21,1.48c0-.47,0-1,0-1.42l.2-.13Z"/><path class="cls-4" d="M23.9,34.6v0l-.19,0Z"/><path class="cls-4" d="M23.89,35.94c0,.14,0,.28,0,.42a.73.73,0,0,0-.18.14v-.58Z"/><path class="cls-4" d="M23.89,36.36v.13h-.18A.73.73,0,0,1,23.89,36.36Z"/><path class="cls-4" d="M23.89,35.82v.12l-.18,0A.33.33,0,0,1,23.89,35.82Z"/><path class="cls-4" d="M23.89,36.5c0,.28,0,.59-.21.81h0c0-.27,0-.54,0-.81Z"/><path class="cls-4" d="M23.78,37.37a2,2,0,0,1,.09.9l-.17,0,0-1h0Z"/><path class="cls-4" d="M23.87,38.27v0s0,.08,0,.11a.34.34,0,0,1-.15-.09Z"/><path class="cls-4" d="M23.87,39s0,.09,0,.14a.58.58,0,0,1-.18-.11Z"/><path class="cls-4" d="M23.87,39l-.16,0,0-.31,0,0A.56.56,0,0,1,23.87,39Z"/><path class="cls-4" d="M23.85,38.41a1.09,1.09,0,0,1-.09.23l0,0,0-.05,0-.3A.34.34,0,0,0,23.85,38.41Z"/><path class="cls-4" d="M23.69,58a1,1,0,0,1,0,1.15h0l-.1,0C23.78,58.76,23.65,58.35,23.69,58Z"/><path class="cls-4" d="M23.64,59.13c.14,0,.13.16.07.31a.49.49,0,0,0-.11-.29Z"/><path class="cls-4" d="M23.72,38.67l0,0a.28.28,0,0,0,0-.09Z"/><path class="cls-4" d="M23.71,59.44l0,.68-3,.3a20.22,20.22,0,0,1,2.9-1.27A.49.49,0,0,1,23.71,59.44Z"/><path class="cls-4" d="M23.71,35.92v.58c0,.27,0,.54,0,.81a11,11,0,0,0-2-1.08c-.11-.52.23-.81.58-1.11h.09c.39-.46-.06-.46-.3-.5-.44-.07-.89,0-1.34-.15A14.21,14.21,0,0,1,17,32.86c-3-1.69-6.06-2.75-9.42-1.44a.53.53,0,0,0,.15-.22,17.63,17.63,0,0,1,1.63-2.91c.11-.16.24-.34.16-.53s-.24-.32-.33,0a8.56,8.56,0,0,0-2.8,1.57,11.67,11.67,0,0,1-1-3.43h0a12.23,12.23,0,0,1,1.34-2.81c0,.28.07.47.12.65a.86.86,0,0,0,1.4.57,3.32,3.32,0,0,0,1.46-2.77H10a10.71,10.71,0,0,0,6.35,3.24,22.83,22.83,0,0,0,7.14-.33c.35.17.21.5.21.75,0,2.15,0,4.29,0,6.43v4.27Z"/><path class="cls-4" d="M23.68,38.71l0,.31V52c0,.47,0,1,0,1.42l-.29,0a9,9,0,0,1-2.7-1.38,2.67,2.67,0,0,0-1.87-.51c-.28,0-.64.08-.64.42s.37.22.59.27a5.21,5.21,0,0,0,.84.08,1.71,1.71,0,0,1-2.1.25,2,2,0,0,1-.28-2.39c.14-.21.32-.41.48-.62a2.73,2.73,0,0,1,2.15-.33c.69.27.77.17.89-.6a13.86,13.86,0,0,1,1.6-5,1.17,1.17,0,0,0,.15-1A3.65,3.65,0,0,1,23.68,38.71Z"/><path class="cls-4" d="M23.7,64.4a1.5,1.5,0,0,1-.59,1.39,11.53,11.53,0,0,0-2.72,4.51c-.54,1.27-.89,2.61-1.42,3.92V72.8c.35.38.09.8.11,1.09a19.12,19.12,0,0,1,1.41-4.32,10.68,10.68,0,0,1,2.74-4.17C23.56,65.13,23.4,64.67,23.7,64.4Z"/><path class="cls-4" d="M23.67,37.32l0,1,0,.3a1.75,1.75,0,0,0-.32.12,3.65,3.65,0,0,0-1.14,2l-1.36-.2a11.66,11.66,0,0,0,0-3.28.86.86,0,0,1,.78-1.07h0a.38.38,0,0,0,0,.1A5.6,5.6,0,0,0,23.67,37.32Z"/><path class="cls-4" d="M23.68,54.88a6,6,0,0,1,0,.85c-3.23-.27-8.39,1.64-9.82,3a7.44,7.44,0,0,1,2.54-.2c-.31.62-.61,1.17-.85,1.75a2.61,2.61,0,0,0-.29,1.84c2-3.13,4.53-5.35,8.41-5.52,0,.24,0,.48,0,.72-.32-.26-.68-.14-1-.06A7.62,7.62,0,0,0,18,61a24.54,24.54,0,0,0-2.62,6.39,18.11,18.11,0,0,0-2.32-5.91c-.16-.26-.33-.59-.67-.58l-.05-.06,0,.06h0c-.32,0-.33.43-.43.69a7,7,0,0,1-1.3,2.19c-.09.11-.18.25-.34.2s-.16-.22-.19-.35a2.89,2.89,0,0,1,0-.29,26.53,26.53,0,0,0-2.58-7.36c-.11-.2-.2-.5-.47-.49l0-.06s0,0,0,.06h0c-.27,0-.23.38-.27.6a18.56,18.56,0,0,1-1.23,3.71c-.17.42-.38.48-.74.19-.52-.42-1-.9-1.51-1.31a.57.57,0,0,1-.17-.7c.12-.29.25-.56.38-.84A19,19,0,0,0,5,50.32a17.69,17.69,0,0,1,.13,1.92,17.38,17.38,0,0,1-.41,5.11,7.43,7.43,0,0,0,1.95-3.3,17.49,17.49,0,0,1,3.74,3.75c.31.4.48.93,1,1.17,0,.27-.33.48-.17.87a15.06,15.06,0,0,1,9.15-4.45,5.7,5.7,0,0,0-3-.78,4.84,4.84,0,0,1,3.08-.55,29.11,29.11,0,0,0,3.06.5A.7.7,0,0,1,23.68,54.88Z"/><path class="cls-4" d="M23.69,62.22c0,.72,0,1.45,0,2.18-.3.27-.14.73-.47,1a10.68,10.68,0,0,0-2.74,4.17,19.12,19.12,0,0,0-1.41,4.32c0-.29.24-.71-.11-1.09a17.51,17.51,0,0,1,3.42-9.94c.32-.41.67-.79,1-1.18C23.76,61.72,23.68,62,23.69,62.22Z"/><path class="cls-4" d="M23.67,57.27c0,.24,0,.47,0,.7,0,.38.09.79-.15,1.14a4.86,4.86,0,0,0-2.84,1.31v.13a.51.51,0,0,0-.5.56c0,.3.38.12.58.17a1.48,1.48,0,0,0,.21,0c.2,0,.43,0,.68.12a13.48,13.48,0,0,0-1.76,1.7,20.84,20.84,0,0,0-3,6.29c-.27.8-.49,1.62-.73,2.43-.11.39-.31.44-.59.16-.45-.42-.88-.86-1.33-1.29A.86.86,0,0,1,14,70a23.11,23.11,0,0,0-.86-6.51,9.26,9.26,0,0,0-.62-1.6l-.47-.19c.1-.26.2-.53.29-.81h.07a18.39,18.39,0,0,1,3,7.06l.17-.46a22.13,22.13,0,0,1,3.18-7.24A6.29,6.29,0,0,1,23.67,57.27Z"/><polygon class="cls-4" points="23.67 37.3 23.68 37.31 23.67 37.32 23.67 37.3"/><path class="cls-4" d="M23.67,38.62a.28.28,0,0,1,0,.09,3.65,3.65,0,0,0-1.17,4,1.17,1.17,0,0,1-.15,1,13.86,13.86,0,0,0-1.6,5c-.12.77-.2.87-.89.6a2.73,2.73,0,0,0-2.15.33,1.82,1.82,0,0,1,2.22-.5c.45.17.57.15.63-.38a12.92,12.92,0,0,1,1.57-5,1.4,1.4,0,0,0,.1-1.27,3.13,3.13,0,0,1,0-1.64,3.65,3.65,0,0,1,1.14-2A1.75,1.75,0,0,1,23.67,38.62Z"/><path class="cls-4" d="M23.67,37.31h0a5.6,5.6,0,0,1-2-1,.38.38,0,0,1,0-.1A11,11,0,0,1,23.67,37.31Z"/><path class="cls-4" d="M23.67,55.73c0,.27,0,.55,0,.82a1.22,1.22,0,0,0-1-.11,9.51,9.51,0,0,0-5.19,2.61,13.79,13.79,0,0,0-2.07,2.44,8.75,8.75,0,0,1,.32-1.17c.17-.42.39-.82.59-1.22.33-.65.22-.83-.52-.86a7.41,7.41,0,0,0-1.55.21,2.44,2.44,0,0,0,.69-.28,18.43,18.43,0,0,1,8.23-2.27A.78.78,0,0,0,23.67,55.73Z"/><path class="cls-4" d="M23.64,59.13l0,0-.06,0Z"/><path class="cls-4" d="M23.54,59.11l.06,0a20.22,20.22,0,0,0-2.9,1.27A4.86,4.86,0,0,1,23.54,59.11Z"/><path class="cls-4" d="M13.85,58.68c1.43-1.31,6.59-3.22,9.82-3a.78.78,0,0,1-.53.17,18.43,18.43,0,0,0-8.23,2.27,2.44,2.44,0,0,1-.69.28,7.41,7.41,0,0,1,1.55-.21c.74,0,.85.21.52.86-.2.4-.42.8-.59,1.22a8.75,8.75,0,0,0-.32,1.17,13.79,13.79,0,0,1,2.07-2.44,9.51,9.51,0,0,1,5.19-2.61,1.22,1.22,0,0,1,1,.11c-3.88.17-6.43,2.39-8.41,5.52a2.61,2.61,0,0,1,.29-1.84c.24-.58.54-1.13.85-1.75A7.44,7.44,0,0,0,13.85,58.68Z"/><path class="cls-4" d="M22.65,57.21c.34-.08.7-.2,1,.06a6.29,6.29,0,0,0-4.93,2.94,22.13,22.13,0,0,0-3.18,7.24l-.17.46a18.39,18.39,0,0,0-3-7.06c.34,0,.51.32.67.58a18.11,18.11,0,0,1,2.32,5.91A24.54,24.54,0,0,1,18,61,7.62,7.62,0,0,1,22.65,57.21Z"/><path class="cls-4" d="M22,34.61c.24,0,.69,0,.3.5h-.09l.07,0c.22-.26.08-.33-.17-.31-1.93.12-3.53-.78-5.13-1.66a18.53,18.53,0,0,0-3.48-1.59,8.79,8.79,0,0,0-6.14.18A10.42,10.42,0,0,1,8.69,28.9c.21-.35.48-.66.65-1s0-.27-.19-.09c.09-.35.25-.22.33,0s-.05.37-.16.53A17.63,17.63,0,0,0,7.69,31.2a.53.53,0,0,1-.15.22l-.07,0a.11.11,0,0,0,.07,0C10.9,30.11,14,31.17,17,32.86a14.21,14.21,0,0,0,3.71,1.6C21.12,34.56,21.57,34.54,22,34.61Z"/><path class="cls-4" d="M22.12,34.76c.25,0,.39.05.17.31l-.07,0A7.74,7.74,0,0,1,17,34.17a19.88,19.88,0,0,0-2.7-1.11,6.33,6.33,0,0,0-4.78.23l-1,.41A8.65,8.65,0,0,1,13,34c.19.07.46.16.43.4s-.28.23-.46.27a8.43,8.43,0,0,0-3.41,1.7c-.24.19-.51.37-.47.74l0,.06a.85.85,0,0,0-.23,0,1.94,1.94,0,0,0,.62,1,6.89,6.89,0,0,0,4.14,2.26,8.74,8.74,0,0,1-4.35-1,12,12,0,0,0,1.65,5.47,6.61,6.61,0,0,0,4.6,3.06v0a5,5,0,0,1-3.29.41c1.57,1.39,4.7,1.22,6-.37,1.53-1.94,1.57-4.15,1-6.53A7.94,7.94,0,0,1,16.34,43l0,0v0a9.31,9.31,0,0,0,1.38-1.8,1.56,1.56,0,0,0,.28-.3,5.62,5.62,0,0,0,1.24-1c.36-.39.66-.35.79.12a6,6,0,0,1,.28,2.89,9.89,9.89,0,0,0,.58-2.28l1.36.2a3.13,3.13,0,0,0,0,1.64,1.4,1.4,0,0,1-.1,1.27,12.92,12.92,0,0,0-1.57,5c-.06.53-.18.55-.63.38a1.82,1.82,0,0,0-2.22.5,2.47,2.47,0,0,0-2.15,1.79l-.3,2.46a.85.85,0,0,1-.4.71,2.3,2.3,0,0,0-.38.32C13.32,56,13.3,56,12.27,54.77a22,22,0,0,1-2.41-3.42A6.32,6.32,0,0,1,9,48.17a7,7,0,0,0-1.19,2.75,5.32,5.32,0,0,1-1-2.77c-.26-2-.08-4-.54-6A10.66,10.66,0,0,1,9.2,45a22.11,22.11,0,0,0-3.64-7.52A3.5,3.5,0,0,1,5,34.36,10.86,10.86,0,0,1,8.4,28.54l.75-.75c.17-.18.33-.19.19.09s-.44.67-.65,1a10.42,10.42,0,0,0-1.32,2.79,8.79,8.79,0,0,1,6.14-.18A18.53,18.53,0,0,1,17,33.1C18.59,34,20.19,34.88,22.12,34.76Z"/><path class="cls-4" d="M20.69,60.55l.29.72C20.73,61.09,20.2,61,20.69,60.55Z"/><path class="cls-4" d="M21,61.27a1.48,1.48,0,0,1-.21,0c-.2-.05-.54.13-.58-.17a.51.51,0,0,1,.5-.56C20.2,61,20.73,61.09,21,61.27Z"/><path class="cls-4" d="M19.24,41.46c.53,2.38.49,4.59-1,6.53-1.26,1.59-4.39,1.76-6,.37A5,5,0,0,0,15.53,48h0c0,.35-.42.39-.71.48a4.33,4.33,0,0,1-2,.15A5,5,0,0,0,16,49a3.59,3.59,0,0,0,2.77-2.21,7.64,7.64,0,0,0,.46-4.53c-.07-.35-.19-.39-.47-.19a6.37,6.37,0,0,1-1.86,1c-.19.06-.41.15-.55,0A7.94,7.94,0,0,0,19.24,41.46Z"/><path class="cls-4" d="M19.22,42.23a7.64,7.64,0,0,1-.46,4.53A3.59,3.59,0,0,1,16,49a5,5,0,0,1-3.21-.39,4.33,4.33,0,0,0,2-.15c.29-.09.72-.13.71-.48h0c0-.28-.43-.29-.69-.37a6.09,6.09,0,0,1-3.44-2.37,11,11,0,0,1-1.82-4.74c0-.21-.18-.46,0-.61s.43.06.64.14a7.85,7.85,0,0,0,3.17.68c.14,0,.31,0,.36-.15s-.12-.28-.27-.33-.56-.13-.83-.21A5.63,5.63,0,0,1,9.1,37.2a4.28,4.28,0,0,1,1,.64,6.62,6.62,0,0,0,1.49.78,1.88,1.88,0,0,0,.23.16,4.62,4.62,0,0,0,2.62,1,14.39,14.39,0,0,0,1.69-.41,2,2,0,0,0,.34-.14,7.78,7.78,0,0,0,1.21-.33c.56-.16.78,0,.69.57A3.17,3.17,0,0,1,18,40.88L17.7,41c-.53.39-.73,1-1.21,1.49-.13.11-.29.29-.19.47l-.08.09.12,0c.14.17.36.08.55,0a6.37,6.37,0,0,0,1.86-1C19,41.84,19.15,41.88,19.22,42.23Z"/><path class="cls-4" d="M17.7,41l.26-.14a1.56,1.56,0,0,1-.28.3A9.31,9.31,0,0,1,16.3,43c-.1-.18.06-.36.19-.47C17,42.07,17.17,41.41,17.7,41Z"/><path class="cls-4" d="M17.55,37.8c.26.22.16.4,0,.59a3.58,3.58,0,0,1-1,.84,1.09,1.09,0,0,1-.36,0,12.24,12.24,0,0,0-1.45.35A4.63,4.63,0,0,1,12,38.69a2,2,0,0,1-.35-.07,7.71,7.71,0,0,1-.92-.89c-.24-.26-.15-.39.11-.52a7,7,0,0,1,1.86-.67,1,1,0,0,1,.91.46.38.38,0,0,1,0,.52.57.57,0,0,1-.82.13A1.54,1.54,0,0,0,14.58,39c1-.19,1.44-1.05,1.16-2.3A4.66,4.66,0,0,1,17.55,37.8Z"/><path class="cls-4" d="M16.15,39.23a1.09,1.09,0,0,0,.36,0,2,2,0,0,1-.34.14,14.39,14.39,0,0,1-1.69.41,4.62,4.62,0,0,1-2.62-1,1.88,1.88,0,0,1-.23-.16,2,2,0,0,0,.35.07,4.63,4.63,0,0,0,2.72.89A12.24,12.24,0,0,1,16.15,39.23Z"/><path class="cls-4" d="M14.84,47.56c.26.08.67.09.69.37a6.61,6.61,0,0,1-4.6-3.06A12,12,0,0,1,9.28,39.4a8.74,8.74,0,0,0,4.35,1,6.89,6.89,0,0,1-4.14-2.26,1.94,1.94,0,0,1-.62-1,.85.85,0,0,1,.23,0A5.63,5.63,0,0,0,12.63,40c.27.08.56.12.83.21s.34.12.27.33-.22.14-.36.15A7.85,7.85,0,0,1,10.2,40c-.21-.08-.42-.35-.64-.14s0,.4,0,.61a11,11,0,0,0,1.82,4.74A6.09,6.09,0,0,0,14.84,47.56Z"/><path class="cls-4" d="M12.05,61.66l.47.19c-.09.7-.14,1.41-.22,2.1a24.11,24.11,0,0,1-.69,3.68c-.11.45-.24.48-.58.17-.88-.79-1.79-1.54-2.7-2.3a1.35,1.35,0,0,1-.48-1A47.86,47.86,0,0,0,7.1,57c-.36,1.33-.49,2.59-.93,3.77-.2.53-.4,1.07-.57,1.6s-.44.44-.78.17c-1.29-1-2.57-2.08-3.88-3.09-.27-.21-.28-.29-.07-.54a17,17,0,0,0,2.86-5.75,26.55,26.55,0,0,0,1-4c0-.1,0-.26.21-.15s0,.13,0,.2c-.19.15-.07.35-.11.52,0,.5-.11,1-.15,1.48A17.06,17.06,0,0,1,3.2,57.06c-.58,1.25-.6,1.24.43,2.19.07.06.13.14.21.2C5.56,60.89,5.09,61,6,58.93a14.5,14.5,0,0,0,1-3.49H7a26.53,26.53,0,0,1,2.87,7.92c.06.34,0,.86.3.94s.52-.4.77-.63c0,0,.05-.09.08-.12A6.41,6.41,0,0,0,12.05,61.66Z"/><path class="cls-4" d="M12.34,60.85h0c-.09.28-.19.55-.29.81a6.41,6.41,0,0,1-1,1.89s0,.09-.08.12c-.25.23-.46.73-.77.63s-.24-.6-.3-.94A26.53,26.53,0,0,0,7,55.44c.27,0,.36.29.47.49A26.53,26.53,0,0,1,10,63.29a2.89,2.89,0,0,0,0,.29c0,.13,0,.31.19.35s.25-.09.34-.2a7,7,0,0,0,1.3-2.19C12,61.28,12,60.9,12.34,60.85Z"/><path class="cls-4" d="M12.14,56.48a.57.57,0,0,1,.1.85A7.73,7.73,0,0,0,11.39,59a17.67,17.67,0,0,0-4.13-4.74c-.51-.4-.7-.35-.92.25A7.37,7.37,0,0,1,5,56.77a21.45,21.45,0,0,0,.14-6.64c0-.14,0-.31-.13-.38s-.15-.36,0-.56a15.32,15.32,0,0,0,3.26,5.16,8.06,8.06,0,0,1,.42-2.3l.72,1.07A26.09,26.09,0,0,0,12.14,56.48Z"/><path class="cls-4" d="M12.94,20.68a27.4,27.4,0,0,1-3,.88H9.65a1.18,1.18,0,0,0,0-.2c-.28-.86-.22-1.41.64-1.77,0,0,.05-.08.07-.12A16.29,16.29,0,0,0,12.94,20.68Z"/><path class="cls-4" d="M11.39,59c-.49-.24-.66-.77-1-1.17a17.49,17.49,0,0,0-3.74-3.75,7.43,7.43,0,0,1-1.95,3.3,17.38,17.38,0,0,0,.41-5.11A17.69,17.69,0,0,0,5,50.32l0-.53v0c.13.07.11.24.13.38A21.45,21.45,0,0,1,5,56.77a7.37,7.37,0,0,0,1.31-2.29c.22-.6.41-.65.92-.25A17.67,17.67,0,0,1,11.39,59Z"/><path class="cls-4" d="M10.32,19.48s0,.1-.07.12c-.86.36-.92.91-.64,1.77a1.18,1.18,0,0,1,0,.2,3.32,3.32,0,0,1-1.46,2.77.86.86,0,0,1-1.4-.57c0-.18-.07-.37-.12-.65a12.23,12.23,0,0,0-1.34,2.81,6.48,6.48,0,0,1,.87-2.45c.1-.19.22-.42.46-.39s.24.28.27.46c.16,1,.94.89,1.46.39a3,3,0,0,0,1-2.82C9.18,20,9.22,19.91,10.32,19.48Z"/><path class="cls-4" d="M9.38,21.12a3,3,0,0,1-1,2.82c-.52.5-1.3.57-1.46-.39,0-.18-.06-.43-.27-.46s-.36.2-.46.39a6.48,6.48,0,0,0-.87,2.45A9.2,9.2,0,0,1,7.74,18.5c.36-.39.63-.6,1.11-.11a11.42,11.42,0,0,0,1.47,1.09C9.22,19.91,9.18,20,9.38,21.12Z"/><path class="cls-4" d="M7.47,31.45l.07,0A.11.11,0,0,1,7.47,31.45Z"/><path class="cls-4" d="M6.93,55.45H7a14.5,14.5,0,0,1-1,3.49c-.88,2.06-.41,2-2.13.52-.08-.06-.14-.14-.21-.2-1-1-1-.94-.43-2.19a17.06,17.06,0,0,0,1.54-5.87c0-.49.1-1,.15-1.48.05.21.09.41.12.61A19,19,0,0,1,3.39,57.1c-.13.28-.26.55-.38.84a.57.57,0,0,0,.17.7c.54.41,1,.89,1.51,1.31.36.29.57.23.74-.19a18.56,18.56,0,0,0,1.23-3.71C6.7,55.83,6.66,55.5,6.93,55.45Z"/><path class="cls-4" d="M5,49.75v0l0,.53c0-.2-.07-.4-.12-.61Z"/><path class="cls-4" d="M5,49.19c-.11.2,0,.37,0,.56l-.15,0C4.93,49.54,4.81,49.34,5,49.19Z"/><path class="cls-4" d="M1.74,31.6c1.92.44,2.43,1.45,1.74,3.63a2.23,2.23,0,0,0-1.67-.94c-.05-.31.3-.27.37-.48a.83.83,0,0,0-.67,0c-.91.29-1,1.11-1.13,2a5,5,0,0,1-.13-3.45A1.16,1.16,0,0,1,1.74,31.6Z"/><text class="cls-5" transform="translate(359.18 54.02)">365</text></g></g></svg>